<mxfile host="app.diagrams.net" modified="2023-11-24T18:59:14.591Z" agent="Mozilla/5.0 (Windows NT 10.0; Win64; x64) AppleWebKit/537.36 (KHTML, like Gecko) Chrome/119.0.0.0 Safari/537.36" etag="J2p5WM1ecqOj6SVUOwKO" version="22.1.3" type="device">
  <diagram id="C5RBs43oDa-KdzZeNtuy" name="Page-1">
    <mxGraphModel dx="2876" dy="1066" grid="1" gridSize="10" guides="1" tooltips="1" connect="1" arrows="1" fold="1" page="1" pageScale="1" pageWidth="827" pageHeight="1169" math="0" shadow="0">
      <root>
        <mxCell id="WIyWlLk6GJQsqaUBKTNV-0" />
        <mxCell id="WIyWlLk6GJQsqaUBKTNV-1" parent="WIyWlLk6GJQsqaUBKTNV-0" />
        <mxCell id="K6QymJazdrhjdbTu9CTd-19" value="" style="edgeStyle=orthogonalEdgeStyle;rounded=0;orthogonalLoop=1;jettySize=auto;html=1;exitX=0.5;exitY=1;exitDx=0;exitDy=0;" parent="WIyWlLk6GJQsqaUBKTNV-1" source="K6QymJazdrhjdbTu9CTd-76" target="K6QymJazdrhjdbTu9CTd-1" edge="1">
          <mxGeometry relative="1" as="geometry">
            <mxPoint x="200" y="120" as="sourcePoint" />
          </mxGeometry>
        </mxCell>
        <mxCell id="K6QymJazdrhjdbTu9CTd-3" value="" style="edgeStyle=orthogonalEdgeStyle;rounded=0;orthogonalLoop=1;jettySize=auto;html=1;" parent="WIyWlLk6GJQsqaUBKTNV-1" source="WIyWlLk6GJQsqaUBKTNV-10" target="za9HyyTHuq6Hq0-Qfy3w-4" edge="1">
          <mxGeometry relative="1" as="geometry" />
        </mxCell>
        <mxCell id="K6QymJazdrhjdbTu9CTd-13" value="Yes&lt;br&gt;" style="edgeLabel;html=1;align=center;verticalAlign=middle;resizable=0;points=[];" parent="K6QymJazdrhjdbTu9CTd-3" vertex="1" connectable="0">
          <mxGeometry x="-0.2093" y="-3" relative="1" as="geometry">
            <mxPoint x="2" y="-23" as="offset" />
          </mxGeometry>
        </mxCell>
        <mxCell id="WIyWlLk6GJQsqaUBKTNV-10" value="Log in?" style="rhombus;whiteSpace=wrap;html=1;shadow=0;fontFamily=Helvetica;fontSize=12;align=center;strokeWidth=1;spacing=6;spacingTop=-4;fillColor=#f8cecc;strokeColor=#b85450;" parent="WIyWlLk6GJQsqaUBKTNV-1" vertex="1">
          <mxGeometry x="364" y="450" width="116" height="100" as="geometry" />
        </mxCell>
        <mxCell id="za9HyyTHuq6Hq0-Qfy3w-6" value="" style="edgeStyle=orthogonalEdgeStyle;rounded=0;orthogonalLoop=1;jettySize=auto;html=1;" parent="WIyWlLk6GJQsqaUBKTNV-1" source="za9HyyTHuq6Hq0-Qfy3w-4" target="za9HyyTHuq6Hq0-Qfy3w-5" edge="1">
          <mxGeometry relative="1" as="geometry" />
        </mxCell>
        <mxCell id="za9HyyTHuq6Hq0-Qfy3w-7" value="Yes&lt;br&gt;" style="edgeLabel;html=1;align=center;verticalAlign=middle;resizable=0;points=[];" parent="za9HyyTHuq6Hq0-Qfy3w-6" vertex="1" connectable="0">
          <mxGeometry x="-0.275" y="1" relative="1" as="geometry">
            <mxPoint x="19" y="-6" as="offset" />
          </mxGeometry>
        </mxCell>
        <mxCell id="K6QymJazdrhjdbTu9CTd-38" style="edgeStyle=orthogonalEdgeStyle;rounded=0;orthogonalLoop=1;jettySize=auto;html=1;" parent="WIyWlLk6GJQsqaUBKTNV-1" source="za9HyyTHuq6Hq0-Qfy3w-4" target="za9HyyTHuq6Hq0-Qfy3w-8" edge="1">
          <mxGeometry relative="1" as="geometry" />
        </mxCell>
        <mxCell id="K6QymJazdrhjdbTu9CTd-41" value="No" style="edgeLabel;html=1;align=center;verticalAlign=middle;resizable=0;points=[];" parent="K6QymJazdrhjdbTu9CTd-38" vertex="1" connectable="0">
          <mxGeometry x="-0.04" y="-1" relative="1" as="geometry">
            <mxPoint y="-21" as="offset" />
          </mxGeometry>
        </mxCell>
        <mxCell id="za9HyyTHuq6Hq0-Qfy3w-4" value="Does user have an account?" style="rhombus;whiteSpace=wrap;html=1;fillColor=#f8cecc;strokeColor=#b85450;" parent="WIyWlLk6GJQsqaUBKTNV-1" vertex="1">
          <mxGeometry x="612.5" y="435" width="120" height="130" as="geometry" />
        </mxCell>
        <mxCell id="K6QymJazdrhjdbTu9CTd-33" style="edgeStyle=orthogonalEdgeStyle;rounded=0;orthogonalLoop=1;jettySize=auto;html=1;" parent="WIyWlLk6GJQsqaUBKTNV-1" source="za9HyyTHuq6Hq0-Qfy3w-5" target="K6QymJazdrhjdbTu9CTd-1" edge="1">
          <mxGeometry relative="1" as="geometry" />
        </mxCell>
        <mxCell id="za9HyyTHuq6Hq0-Qfy3w-5" value="Sign In" style="rhombus;whiteSpace=wrap;html=1;fillColor=#f8cecc;strokeColor=#b85450;" parent="WIyWlLk6GJQsqaUBKTNV-1" vertex="1">
          <mxGeometry x="620" y="245" width="105" height="110" as="geometry" />
        </mxCell>
        <mxCell id="K6QymJazdrhjdbTu9CTd-39" style="edgeStyle=orthogonalEdgeStyle;rounded=0;orthogonalLoop=1;jettySize=auto;html=1;entryX=0.5;entryY=1;entryDx=0;entryDy=0;" parent="WIyWlLk6GJQsqaUBKTNV-1" source="za9HyyTHuq6Hq0-Qfy3w-8" target="K6QymJazdrhjdbTu9CTd-4" edge="1">
          <mxGeometry relative="1" as="geometry" />
        </mxCell>
        <mxCell id="K6QymJazdrhjdbTu9CTd-51" value="Yes" style="edgeLabel;html=1;align=center;verticalAlign=middle;resizable=0;points=[];" parent="K6QymJazdrhjdbTu9CTd-39" vertex="1" connectable="0">
          <mxGeometry x="-0.1333" y="-2" relative="1" as="geometry">
            <mxPoint x="18" as="offset" />
          </mxGeometry>
        </mxCell>
        <mxCell id="za9HyyTHuq6Hq0-Qfy3w-8" value="Sign in using Email?" style="rhombus;whiteSpace=wrap;html=1;fillColor=#f8cecc;strokeColor=#b85450;" parent="WIyWlLk6GJQsqaUBKTNV-1" vertex="1">
          <mxGeometry x="867.5" y="450" width="105" height="100" as="geometry" />
        </mxCell>
        <mxCell id="K6QymJazdrhjdbTu9CTd-2" style="edgeStyle=orthogonalEdgeStyle;rounded=0;orthogonalLoop=1;jettySize=auto;html=1;" parent="WIyWlLk6GJQsqaUBKTNV-1" source="K6QymJazdrhjdbTu9CTd-1" target="WIyWlLk6GJQsqaUBKTNV-10" edge="1">
          <mxGeometry relative="1" as="geometry">
            <Array as="points">
              <mxPoint x="200" y="500" />
            </Array>
          </mxGeometry>
        </mxCell>
        <mxCell id="K6QymJazdrhjdbTu9CTd-31" style="edgeStyle=orthogonalEdgeStyle;rounded=0;orthogonalLoop=1;jettySize=auto;html=1;" parent="WIyWlLk6GJQsqaUBKTNV-1" source="K6QymJazdrhjdbTu9CTd-1" target="K6QymJazdrhjdbTu9CTd-26" edge="1">
          <mxGeometry relative="1" as="geometry">
            <mxPoint x="200" y="584" as="targetPoint" />
            <Array as="points">
              <mxPoint x="200" y="660" />
            </Array>
          </mxGeometry>
        </mxCell>
        <mxCell id="K6QymJazdrhjdbTu9CTd-53" style="edgeStyle=orthogonalEdgeStyle;rounded=0;orthogonalLoop=1;jettySize=auto;html=1;exitX=0.5;exitY=1;exitDx=0;exitDy=0;entryX=0;entryY=0.5;entryDx=0;entryDy=0;" parent="WIyWlLk6GJQsqaUBKTNV-1" target="K6QymJazdrhjdbTu9CTd-52" edge="1">
          <mxGeometry relative="1" as="geometry">
            <mxPoint x="200" y="830" as="targetPoint" />
            <mxPoint x="199.5" y="415" as="sourcePoint" />
            <Array as="points">
              <mxPoint x="200" y="900" />
            </Array>
          </mxGeometry>
        </mxCell>
        <mxCell id="K6QymJazdrhjdbTu9CTd-69" style="edgeStyle=orthogonalEdgeStyle;rounded=0;orthogonalLoop=1;jettySize=auto;html=1;entryX=0.5;entryY=0;entryDx=0;entryDy=0;" parent="WIyWlLk6GJQsqaUBKTNV-1" source="K6QymJazdrhjdbTu9CTd-1" target="K6QymJazdrhjdbTu9CTd-20" edge="1">
          <mxGeometry relative="1" as="geometry" />
        </mxCell>
        <mxCell id="K6QymJazdrhjdbTu9CTd-71" style="edgeStyle=orthogonalEdgeStyle;rounded=0;orthogonalLoop=1;jettySize=auto;html=1;entryX=0.5;entryY=0;entryDx=0;entryDy=0;" parent="WIyWlLk6GJQsqaUBKTNV-1" source="K6QymJazdrhjdbTu9CTd-1" target="K6QymJazdrhjdbTu9CTd-70" edge="1">
          <mxGeometry relative="1" as="geometry" />
        </mxCell>
        <mxCell id="K6QymJazdrhjdbTu9CTd-1" value="Home Page" style="rounded=1;whiteSpace=wrap;html=1;fillColor=#dae8fc;strokeColor=#6c8ebf;" parent="WIyWlLk6GJQsqaUBKTNV-1" vertex="1">
          <mxGeometry x="140" y="355" width="120" height="60" as="geometry" />
        </mxCell>
        <mxCell id="K6QymJazdrhjdbTu9CTd-40" style="edgeStyle=orthogonalEdgeStyle;rounded=0;orthogonalLoop=1;jettySize=auto;html=1;" parent="WIyWlLk6GJQsqaUBKTNV-1" source="K6QymJazdrhjdbTu9CTd-4" target="za9HyyTHuq6Hq0-Qfy3w-5" edge="1">
          <mxGeometry relative="1" as="geometry" />
        </mxCell>
        <mxCell id="K6QymJazdrhjdbTu9CTd-4" value="Enter user info" style="shape=parallelogram;perimeter=parallelogramPerimeter;whiteSpace=wrap;html=1;fixedSize=1;fillColor=#fff2cc;strokeColor=#d6b656;" parent="WIyWlLk6GJQsqaUBKTNV-1" vertex="1">
          <mxGeometry x="860" y="270" width="120" height="60" as="geometry" />
        </mxCell>
        <mxCell id="K6QymJazdrhjdbTu9CTd-24" value="" style="edgeStyle=orthogonalEdgeStyle;rounded=0;orthogonalLoop=1;jettySize=auto;html=1;" parent="WIyWlLk6GJQsqaUBKTNV-1" source="K6QymJazdrhjdbTu9CTd-20" target="K6QymJazdrhjdbTu9CTd-23" edge="1">
          <mxGeometry relative="1" as="geometry" />
        </mxCell>
        <mxCell id="K6QymJazdrhjdbTu9CTd-75" value="Yes" style="edgeLabel;html=1;align=center;verticalAlign=middle;resizable=0;points=[];" parent="K6QymJazdrhjdbTu9CTd-24" vertex="1" connectable="0">
          <mxGeometry x="-0.0815" y="1" relative="1" as="geometry">
            <mxPoint x="19" as="offset" />
          </mxGeometry>
        </mxCell>
        <mxCell id="K6QymJazdrhjdbTu9CTd-20" value="Search questions?" style="rhombus;whiteSpace=wrap;html=1;fillColor=#f8cecc;strokeColor=#b85450;" parent="WIyWlLk6GJQsqaUBKTNV-1" vertex="1">
          <mxGeometry x="-77.5" y="480" width="95" height="100" as="geometry" />
        </mxCell>
        <mxCell id="K6QymJazdrhjdbTu9CTd-23" value="Search" style="rounded=1;whiteSpace=wrap;html=1;fillColor=#dae8fc;strokeColor=#6c8ebf;" parent="WIyWlLk6GJQsqaUBKTNV-1" vertex="1">
          <mxGeometry x="-90" y="715" width="120" height="60" as="geometry" />
        </mxCell>
        <mxCell id="K6QymJazdrhjdbTu9CTd-43" style="edgeStyle=orthogonalEdgeStyle;rounded=0;orthogonalLoop=1;jettySize=auto;html=1;" parent="WIyWlLk6GJQsqaUBKTNV-1" source="K6QymJazdrhjdbTu9CTd-26" target="K6QymJazdrhjdbTu9CTd-42" edge="1">
          <mxGeometry relative="1" as="geometry" />
        </mxCell>
        <mxCell id="K6QymJazdrhjdbTu9CTd-44" value="Yes" style="edgeLabel;html=1;align=center;verticalAlign=middle;resizable=0;points=[];" parent="K6QymJazdrhjdbTu9CTd-43" vertex="1" connectable="0">
          <mxGeometry x="-0.0496" relative="1" as="geometry">
            <mxPoint y="-20" as="offset" />
          </mxGeometry>
        </mxCell>
        <mxCell id="K6QymJazdrhjdbTu9CTd-26" value="View user profile" style="rhombus;whiteSpace=wrap;html=1;fillColor=#f8cecc;strokeColor=#b85450;" parent="WIyWlLk6GJQsqaUBKTNV-1" vertex="1">
          <mxGeometry x="364" y="605" width="116" height="110" as="geometry" />
        </mxCell>
        <mxCell id="K6QymJazdrhjdbTu9CTd-46" style="edgeStyle=orthogonalEdgeStyle;rounded=0;orthogonalLoop=1;jettySize=auto;html=1;" parent="WIyWlLk6GJQsqaUBKTNV-1" source="K6QymJazdrhjdbTu9CTd-42" target="K6QymJazdrhjdbTu9CTd-45" edge="1">
          <mxGeometry relative="1" as="geometry" />
        </mxCell>
        <mxCell id="K6QymJazdrhjdbTu9CTd-42" value="User profile" style="rounded=1;whiteSpace=wrap;html=1;fillColor=#dae8fc;strokeColor=#6c8ebf;" parent="WIyWlLk6GJQsqaUBKTNV-1" vertex="1">
          <mxGeometry x="605" y="630" width="120" height="60" as="geometry" />
        </mxCell>
        <mxCell id="K6QymJazdrhjdbTu9CTd-47" style="edgeStyle=orthogonalEdgeStyle;rounded=0;orthogonalLoop=1;jettySize=auto;html=1;exitX=0.5;exitY=0;exitDx=0;exitDy=0;entryX=1;entryY=0.5;entryDx=0;entryDy=0;" parent="WIyWlLk6GJQsqaUBKTNV-1" source="K6QymJazdrhjdbTu9CTd-45" target="K6QymJazdrhjdbTu9CTd-76" edge="1">
          <mxGeometry relative="1" as="geometry">
            <mxPoint x="260" y="100" as="targetPoint" />
          </mxGeometry>
        </mxCell>
        <mxCell id="K6QymJazdrhjdbTu9CTd-48" value="Yes" style="edgeLabel;html=1;align=center;verticalAlign=middle;resizable=0;points=[];imageWidth=32;imageHeight=32;" parent="K6QymJazdrhjdbTu9CTd-47" vertex="1" connectable="0">
          <mxGeometry x="-0.7585" y="-1" relative="1" as="geometry">
            <mxPoint x="19" y="102" as="offset" />
          </mxGeometry>
        </mxCell>
        <mxCell id="K6QymJazdrhjdbTu9CTd-49" style="edgeStyle=orthogonalEdgeStyle;rounded=0;orthogonalLoop=1;jettySize=auto;html=1;entryX=0.5;entryY=1;entryDx=0;entryDy=0;" parent="WIyWlLk6GJQsqaUBKTNV-1" source="K6QymJazdrhjdbTu9CTd-45" target="K6QymJazdrhjdbTu9CTd-42" edge="1">
          <mxGeometry relative="1" as="geometry">
            <mxPoint x="670" y="760" as="targetPoint" />
            <Array as="points">
              <mxPoint x="1040" y="760" />
              <mxPoint x="665" y="760" />
            </Array>
          </mxGeometry>
        </mxCell>
        <mxCell id="K6QymJazdrhjdbTu9CTd-50" value="No" style="edgeLabel;html=1;align=center;verticalAlign=middle;resizable=0;points=[];" parent="K6QymJazdrhjdbTu9CTd-49" vertex="1" connectable="0">
          <mxGeometry x="0.0297" y="-1" relative="1" as="geometry">
            <mxPoint y="-19" as="offset" />
          </mxGeometry>
        </mxCell>
        <mxCell id="K6QymJazdrhjdbTu9CTd-45" value="Log out?" style="rhombus;whiteSpace=wrap;html=1;fillColor=#f8cecc;strokeColor=#b85450;" parent="WIyWlLk6GJQsqaUBKTNV-1" vertex="1">
          <mxGeometry x="1000" y="620" width="80" height="80" as="geometry" />
        </mxCell>
        <mxCell id="K6QymJazdrhjdbTu9CTd-56" style="edgeStyle=orthogonalEdgeStyle;rounded=0;orthogonalLoop=1;jettySize=auto;html=1;exitX=1;exitY=0.5;exitDx=0;exitDy=0;entryX=0;entryY=0.5;entryDx=0;entryDy=0;" parent="WIyWlLk6GJQsqaUBKTNV-1" source="K6QymJazdrhjdbTu9CTd-52" target="K6QymJazdrhjdbTu9CTd-58" edge="1">
          <mxGeometry relative="1" as="geometry">
            <mxPoint x="630" y="845" as="targetPoint" />
          </mxGeometry>
        </mxCell>
        <mxCell id="K6QymJazdrhjdbTu9CTd-57" value="Yes" style="edgeLabel;html=1;align=center;verticalAlign=middle;resizable=0;points=[];" parent="K6QymJazdrhjdbTu9CTd-56" vertex="1" connectable="0">
          <mxGeometry x="-0.1622" y="2" relative="1" as="geometry">
            <mxPoint y="-13" as="offset" />
          </mxGeometry>
        </mxCell>
        <mxCell id="K6QymJazdrhjdbTu9CTd-52" value="Ask a question?" style="rhombus;whiteSpace=wrap;html=1;fillColor=#f8cecc;strokeColor=#b85450;" parent="WIyWlLk6GJQsqaUBKTNV-1" vertex="1">
          <mxGeometry x="362" y="845" width="120" height="110" as="geometry" />
        </mxCell>
        <mxCell id="K6QymJazdrhjdbTu9CTd-60" style="edgeStyle=orthogonalEdgeStyle;rounded=0;orthogonalLoop=1;jettySize=auto;html=1;exitX=1;exitY=0.5;exitDx=0;exitDy=0;entryX=0;entryY=0.5;entryDx=0;entryDy=0;" parent="WIyWlLk6GJQsqaUBKTNV-1" source="K6QymJazdrhjdbTu9CTd-58" target="K6QymJazdrhjdbTu9CTd-63" edge="1">
          <mxGeometry relative="1" as="geometry">
            <mxPoint x="853" y="845" as="targetPoint" />
          </mxGeometry>
        </mxCell>
        <mxCell id="K6QymJazdrhjdbTu9CTd-58" value="Write question" style="shape=parallelogram;perimeter=parallelogramPerimeter;whiteSpace=wrap;html=1;fixedSize=1;fillColor=#fff2cc;strokeColor=#d6b656;" parent="WIyWlLk6GJQsqaUBKTNV-1" vertex="1">
          <mxGeometry x="630" y="870" width="120" height="60" as="geometry" />
        </mxCell>
        <mxCell id="K6QymJazdrhjdbTu9CTd-78" style="edgeStyle=orthogonalEdgeStyle;rounded=0;orthogonalLoop=1;jettySize=auto;html=1;" parent="WIyWlLk6GJQsqaUBKTNV-1" source="K6QymJazdrhjdbTu9CTd-63" target="K6QymJazdrhjdbTu9CTd-77" edge="1">
          <mxGeometry relative="1" as="geometry" />
        </mxCell>
        <mxCell id="K6QymJazdrhjdbTu9CTd-80" value="Yes" style="edgeLabel;html=1;align=center;verticalAlign=middle;resizable=0;points=[];" parent="K6QymJazdrhjdbTu9CTd-78" vertex="1" connectable="0">
          <mxGeometry x="-0.1772" y="-1" relative="1" as="geometry">
            <mxPoint x="20" as="offset" />
          </mxGeometry>
        </mxCell>
        <mxCell id="K6QymJazdrhjdbTu9CTd-63" value="Post question?" style="rhombus;whiteSpace=wrap;html=1;fillColor=#f8cecc;strokeColor=#b85450;" parent="WIyWlLk6GJQsqaUBKTNV-1" vertex="1">
          <mxGeometry x="860" y="852.5" width="102.5" height="95" as="geometry" />
        </mxCell>
        <mxCell id="K6QymJazdrhjdbTu9CTd-73" style="edgeStyle=orthogonalEdgeStyle;rounded=0;orthogonalLoop=1;jettySize=auto;html=1;" parent="WIyWlLk6GJQsqaUBKTNV-1" source="K6QymJazdrhjdbTu9CTd-70" target="K6QymJazdrhjdbTu9CTd-72" edge="1">
          <mxGeometry relative="1" as="geometry" />
        </mxCell>
        <mxCell id="K6QymJazdrhjdbTu9CTd-74" value="Yes" style="edgeLabel;html=1;align=center;verticalAlign=middle;resizable=0;points=[];" parent="K6QymJazdrhjdbTu9CTd-73" vertex="1" connectable="0">
          <mxGeometry x="-0.0963" y="1" relative="1" as="geometry">
            <mxPoint x="19" y="-1" as="offset" />
          </mxGeometry>
        </mxCell>
        <mxCell id="K6QymJazdrhjdbTu9CTd-70" value="Go to notifications?" style="rhombus;whiteSpace=wrap;html=1;fillColor=#f8cecc;strokeColor=#b85450;" parent="WIyWlLk6GJQsqaUBKTNV-1" vertex="1">
          <mxGeometry x="-290" y="480" width="100" height="100" as="geometry" />
        </mxCell>
        <mxCell id="K6QymJazdrhjdbTu9CTd-72" value="Notifications" style="rounded=1;whiteSpace=wrap;html=1;fillColor=#dae8fc;strokeColor=#6c8ebf;" parent="WIyWlLk6GJQsqaUBKTNV-1" vertex="1">
          <mxGeometry x="-300" y="715" width="120" height="60" as="geometry" />
        </mxCell>
        <mxCell id="K6QymJazdrhjdbTu9CTd-76" value="Start" style="ellipse;whiteSpace=wrap;html=1;fillColor=#d5e8d4;strokeColor=#82b366;" parent="WIyWlLk6GJQsqaUBKTNV-1" vertex="1">
          <mxGeometry x="147.5" y="40" width="105" height="60" as="geometry" />
        </mxCell>
        <mxCell id="K6QymJazdrhjdbTu9CTd-79" style="edgeStyle=orthogonalEdgeStyle;rounded=0;orthogonalLoop=1;jettySize=auto;html=1;entryX=0.25;entryY=1;entryDx=0;entryDy=0;" parent="WIyWlLk6GJQsqaUBKTNV-1" source="K6QymJazdrhjdbTu9CTd-77" target="K6QymJazdrhjdbTu9CTd-1" edge="1">
          <mxGeometry relative="1" as="geometry" />
        </mxCell>
        <mxCell id="K6QymJazdrhjdbTu9CTd-77" value="Post question" style="rounded=1;whiteSpace=wrap;html=1;fillColor=#dae8fc;strokeColor=#6c8ebf;" parent="WIyWlLk6GJQsqaUBKTNV-1" vertex="1">
          <mxGeometry x="851.25" y="1040" width="120" height="60" as="geometry" />
        </mxCell>
      </root>
    </mxGraphModel>
  </diagram>
</mxfile>
